STARTFONT 2.1
FONT -Trip5-MatrixLight8x6-Light-R-Normal--8-80-75-75-P-40-ISO10646-1
SIZE 8 75 75
FONTBOUNDINGBOX 6 8 0 0
COMMENT "Generated by fontforge, http://fontforge.sourceforge.net"
COMMENT "Trip5"
COMMENT "Conventional Chaos"
COMMENT "CC-BY"
STARTPROPERTIES 25
FOUNDRY "Conventional Chaos"
FAMILY_NAME "MatrixLight8x6"
FONT_NAME "MatrixLight8x6"
FACE_NAME "MatrixLight8"
COPYRIGHT "https://github.com/trip5/Matrix-Fonts"
FONT_VERSION "001.000"
WEIGHT_NAME "Light"
SLANT "R"
SETWIDTH_NAME "Normal"
ADD_STYLE_NAME ""
PIXEL_SIZE 8
POINT_SIZE 80
RESOLUTION_X 75
RESOLUTION_Y 75
SPACING "P"
AVERAGE_WIDTH 40
CHARSET_REGISTRY "ISO10646"
CHARSET_ENCODING "1"
CHARSET_COLLECTIONS "ISO8859-2 ISO8859-9 ISO8859-4 ISO10646-1"
FONT_ASCENT 8
FONT_DESCENT 0
UNDERLINE_POSITION 0
UNDERLINE_THICKNESS 1
X_HEIGHT 6
CAP_HEIGHT 8
ENDPROPERTIES
CHARS 463
STARTCHAR space
ENCODING 32
SWIDTH 250 0
DWIDTH 6 0
BBX 1 1 5 0
BITMAP
00
ENDCHAR
STARTCHAR exclam
ENCODING 33
SWIDTH 250 0
DWIDTH 6 0
BBX 1 7 2 1
BITMAP
80
80
80
80
00
80
80
ENDCHAR
STARTCHAR quotedbl
ENCODING 34
SWIDTH 1000 0
DWIDTH 6 0
BBX 3 3 1 5
BITMAP
A0
A0
A0
ENDCHAR
STARTCHAR numbersign
ENCODING 35
SWIDTH 1000 0
DWIDTH 6 0
BBX 5 7 0 1
BITMAP
50
50
F8
50
F8
50
50
ENDCHAR
STARTCHAR dollar
ENCODING 36
SWIDTH 1000 0
DWIDTH 6 0
BBX 5 7 0 1
BITMAP
20
78
80
70
08
F0
20
ENDCHAR
STARTCHAR percent
ENCODING 37
SWIDTH 1000 0
DWIDTH 6 0
BBX 5 7 0 1
BITMAP
48
A8
50
20
50
A8
90
ENDCHAR
STARTCHAR ampersand
ENCODING 38
SWIDTH 625 0
DWIDTH 6 0
BBX 5 7 0 1
BITMAP
60
90
90
50
A8
98
68
ENDCHAR
STARTCHAR quotesingle
ENCODING 39
SWIDTH 250 0
DWIDTH 6 0
BBX 1 3 2 5
BITMAP
80
80
80
ENDCHAR
STARTCHAR parenleft
ENCODING 40
SWIDTH 1000 0
DWIDTH 6 0
BBX 3 7 1 1
BITMAP
20
40
80
80
80
40
20
ENDCHAR
STARTCHAR parenright
ENCODING 41
SWIDTH 1000 0
DWIDTH 6 0
BBX 3 7 1 1
BITMAP
80
40
20
20
20
40
80
ENDCHAR
STARTCHAR asterisk
ENCODING 42
SWIDTH 625 0
DWIDTH 6 0
BBX 5 5 0 2
BITMAP
88
50
F8
50
88
ENDCHAR
STARTCHAR plus
ENCODING 43
SWIDTH 1000 0
DWIDTH 6 0
BBX 5 5 0 2
BITMAP
20
20
F8
20
20
ENDCHAR
STARTCHAR comma
ENCODING 44
SWIDTH 1000 0
DWIDTH 6 0
BBX 2 3 1 0
BITMAP
C0
40
40
ENDCHAR
STARTCHAR hyphen
ENCODING 45
SWIDTH 1000 0
DWIDTH 6 0
BBX 5 1 0 4
BITMAP
F8
ENDCHAR
STARTCHAR period
ENCODING 46
SWIDTH 1000 0
DWIDTH 6 0
BBX 2 2 1 1
BITMAP
C0
C0
ENDCHAR
STARTCHAR slash
ENCODING 47
SWIDTH 1000 0
DWIDTH 6 0
BBX 3 7 0 1
BITMAP
20
20
40
40
40
80
80
ENDCHAR
STARTCHAR zero
ENCODING 48
SWIDTH 1000 0
DWIDTH 6 0
BBX 5 7 0 1
BITMAP
70
88
88
88
88
88
70
ENDCHAR
STARTCHAR one
ENCODING 49
SWIDTH 375 0
DWIDTH 6 0
BBX 2 7 1 1
BITMAP
40
C0
40
40
40
40
40
ENDCHAR
STARTCHAR two
ENCODING 50
SWIDTH 1000 0
DWIDTH 6 0
BBX 5 7 0 1
BITMAP
70
88
08
70
80
80
F8
ENDCHAR
STARTCHAR three
ENCODING 51
SWIDTH 1000 0
DWIDTH 6 0
BBX 5 7 0 1
BITMAP
70
88
08
30
08
88
70
ENDCHAR
STARTCHAR four
ENCODING 52
SWIDTH 1000 0
DWIDTH 6 0
BBX 5 7 0 1
BITMAP
30
50
90
F8
10
10
10
ENDCHAR
STARTCHAR five
ENCODING 53
SWIDTH 1000 0
DWIDTH 6 0
BBX 5 7 0 1
BITMAP
F8
80
80
F0
08
08
F0
ENDCHAR
STARTCHAR six
ENCODING 54
SWIDTH 1000 0
DWIDTH 6 0
BBX 5 7 0 1
BITMAP
70
88
80
F0
88
88
70
ENDCHAR
STARTCHAR seven
ENCODING 55
SWIDTH 1000 0
DWIDTH 6 0
BBX 5 7 0 1
BITMAP
F8
08
08
10
20
20
20
ENDCHAR
STARTCHAR eight
ENCODING 56
SWIDTH 1000 0
DWIDTH 6 0
BBX 5 7 0 1
BITMAP
70
88
88
70
88
88
70
ENDCHAR
STARTCHAR nine
ENCODING 57
SWIDTH 1000 0
DWIDTH 6 0
BBX 5 7 0 1
BITMAP
70
88
88
78
08
88
70
ENDCHAR
STARTCHAR colon
ENCODING 58
SWIDTH 1000 0
DWIDTH 6 0
BBX 2 5 1 2
BITMAP
C0
C0
00
C0
C0
ENDCHAR
STARTCHAR semicolon
ENCODING 59
SWIDTH 1000 0
DWIDTH 6 0
BBX 2 6 1 1
BITMAP
C0
C0
00
C0
40
40
ENDCHAR
STARTCHAR less
ENCODING 60
SWIDTH 1000 0
DWIDTH 6 0
BBX 3 5 1 2
BITMAP
20
40
80
40
20
ENDCHAR
STARTCHAR equal
ENCODING 61
SWIDTH 1000 0
DWIDTH 6 0
BBX 5 3 0 3
BITMAP
F8
00
F8
ENDCHAR
STARTCHAR greater
ENCODING 62
SWIDTH 1000 0
DWIDTH 6 0
BBX 3 5 1 2
BITMAP
80
40
20
40
80
ENDCHAR
STARTCHAR question
ENCODING 63
SWIDTH 1000 0
DWIDTH 6 0
BBX 5 7 0 1
BITMAP
70
88
08
30
20
00
20
ENDCHAR
STARTCHAR at
ENCODING 64
SWIDTH 1000 0
DWIDTH 6 0
BBX 5 7 0 1
BITMAP
70
88
B8
A8
B8
80
70
ENDCHAR
STARTCHAR A
ENCODING 65
SWIDTH 1000 0
DWIDTH 6 0
BBX 5 7 0 1
BITMAP
70
88
88
F8
88
88
88
ENDCHAR
STARTCHAR B
ENCODING 66
SWIDTH 1000 0
DWIDTH 6 0
BBX 5 7 0 1
BITMAP
F0
88
88
F0
88
88
F0
ENDCHAR
STARTCHAR C
ENCODING 67
SWIDTH 1000 0
DWIDTH 6 0
BBX 5 7 0 1
BITMAP
70
88
80
80
80
88
70
ENDCHAR
STARTCHAR D
ENCODING 68
SWIDTH 1000 0
DWIDTH 6 0
BBX 5 7 0 1
BITMAP
E0
90
88
88
88
90
E0
ENDCHAR
STARTCHAR E
ENCODING 69
SWIDTH 1000 0
DWIDTH 6 0
BBX 5 7 0 1
BITMAP
F8
80
80
F0
80
80
F8
ENDCHAR
STARTCHAR F
ENCODING 70
SWIDTH 1000 0
DWIDTH 6 0
BBX 5 7 0 1
BITMAP
F8
80
80
F0
80
80
80
ENDCHAR
STARTCHAR G
ENCODING 71
SWIDTH 1000 0
DWIDTH 6 0
BBX 5 7 0 1
BITMAP
70
80
80
B8
88
88
78
ENDCHAR
STARTCHAR H
ENCODING 72
SWIDTH 625 0
DWIDTH 6 0
BBX 5 7 0 1
BITMAP
88
88
88
F8
88
88
88
ENDCHAR
STARTCHAR I
ENCODING 73
SWIDTH 250 0
DWIDTH 6 0
BBX 3 7 1 1
BITMAP
E0
40
40
40
40
40
E0
ENDCHAR
STARTCHAR J
ENCODING 74
SWIDTH 1000 0
DWIDTH 6 0
BBX 5 7 0 1
BITMAP
08
08
08
08
88
88
70
ENDCHAR
STARTCHAR K
ENCODING 75
SWIDTH 1000 0
DWIDTH 6 0
BBX 5 7 0 1
BITMAP
88
88
90
E0
90
88
88
ENDCHAR
STARTCHAR L
ENCODING 76
SWIDTH 1000 0
DWIDTH 6 0
BBX 5 7 0 1
BITMAP
80
80
80
80
80
80
F8
ENDCHAR
STARTCHAR M
ENCODING 77
SWIDTH 1000 0
DWIDTH 6 0
BBX 5 7 0 1
BITMAP
88
D8
A8
A8
88
88
88
ENDCHAR
STARTCHAR N
ENCODING 78
SWIDTH 1000 0
DWIDTH 6 0
BBX 5 7 0 1
BITMAP
88
88
C8
A8
98
88
88
ENDCHAR
STARTCHAR O
ENCODING 79
SWIDTH 1000 0
DWIDTH 6 0
BBX 5 7 0 1
BITMAP
70
88
88
88
88
88
70
ENDCHAR
STARTCHAR P
ENCODING 80
SWIDTH 1000 0
DWIDTH 6 0
BBX 5 7 0 1
BITMAP
F0
88
88
F0
80
80
80
ENDCHAR
STARTCHAR Q
ENCODING 81
SWIDTH 1000 0
DWIDTH 6 0
BBX 5 7 0 1
BITMAP
70
88
88
88
A8
90
68
ENDCHAR
STARTCHAR R
ENCODING 82
SWIDTH 500 0
DWIDTH 6 0
BBX 5 7 0 1
BITMAP
F0
88
88
F0
90
88
88
ENDCHAR
STARTCHAR S
ENCODING 83
SWIDTH 1000 0
DWIDTH 6 0
BBX 5 7 0 1
BITMAP
70
88
80
70
08
88
70
ENDCHAR
STARTCHAR T
ENCODING 84
SWIDTH 1000 0
DWIDTH 6 0
BBX 5 7 0 1
BITMAP
F8
20
20
20
20
20
20
ENDCHAR
STARTCHAR U
ENCODING 85
SWIDTH 1000 0
DWIDTH 6 0
BBX 5 7 0 1
BITMAP
88
88
88
88
88
88
70
ENDCHAR
STARTCHAR V
ENCODING 86
SWIDTH 1000 0
DWIDTH 6 0
BBX 5 7 0 1
BITMAP
88
88
88
50
50
20
20
ENDCHAR
STARTCHAR W
ENCODING 87
SWIDTH 1000 0
DWIDTH 6 0
BBX 5 7 0 1
BITMAP
A8
A8
A8
A8
A8
A8
50
ENDCHAR
STARTCHAR X
ENCODING 88
SWIDTH 1000 0
DWIDTH 6 0
BBX 5 7 0 1
BITMAP
88
88
50
20
50
88
88
ENDCHAR
STARTCHAR Y
ENCODING 89
SWIDTH 1000 0
DWIDTH 6 0
BBX 5 7 0 1
BITMAP
88
88
50
20
20
20
20
ENDCHAR
STARTCHAR Z
ENCODING 90
SWIDTH 1000 0
DWIDTH 6 0
BBX 5 7 0 1
BITMAP
F8
08
10
20
40
80
F8
ENDCHAR
STARTCHAR bracketleft
ENCODING 91
SWIDTH 1000 0
DWIDTH 6 0
BBX 3 7 1 1
BITMAP
E0
80
80
80
80
80
E0
ENDCHAR
STARTCHAR backslash
ENCODING 92
SWIDTH 1000 0
DWIDTH 6 0
BBX 3 7 1 1
BITMAP
80
80
40
40
40
20
20
ENDCHAR
STARTCHAR bracketright
ENCODING 93
SWIDTH 1000 0
DWIDTH 6 0
BBX 3 7 1 1
BITMAP
E0
20
20
20
20
20
E0
ENDCHAR
STARTCHAR asciicircum
ENCODING 94
SWIDTH 1000 0
DWIDTH 6 0
BBX 3 3 1 5
BITMAP
40
A0
A0
ENDCHAR
STARTCHAR underscore
ENCODING 95
SWIDTH 1000 0
DWIDTH 6 0
BBX 5 1 0 1
BITMAP
F8
ENDCHAR
STARTCHAR grave
ENCODING 96
SWIDTH 1000 0
DWIDTH 6 0
BBX 2 2 0 6
BITMAP
80
40
ENDCHAR
STARTCHAR a
ENCODING 97
SWIDTH 500 0
DWIDTH 6 0
BBX 5 5 0 1
BITMAP
70
08
78
88
78
ENDCHAR
STARTCHAR b
ENCODING 98
SWIDTH 500 0
DWIDTH 6 0
BBX 5 7 0 1
BITMAP
80
80
F0
88
88
88
F0
ENDCHAR
STARTCHAR c
ENCODING 99
SWIDTH 1000 0
DWIDTH 6 0
BBX 5 5 0 1
BITMAP
70
88
80
88
70
ENDCHAR
STARTCHAR d
ENCODING 100
SWIDTH 1000 0
DWIDTH 6 0
BBX 5 7 0 1
BITMAP
08
08
78
88
88
88
78
ENDCHAR
STARTCHAR e
ENCODING 101
SWIDTH 1000 0
DWIDTH 6 0
BBX 5 5 0 1
BITMAP
70
88
F8
80
70
ENDCHAR
STARTCHAR f
ENCODING 102
SWIDTH 1000 0
DWIDTH 6 0
BBX 5 7 0 1
BITMAP
18
20
20
F8
20
20
20
ENDCHAR
STARTCHAR g
ENCODING 103
SWIDTH 1000 0
DWIDTH 6 0
BBX 5 6 0 0
BITMAP
78
88
88
78
08
70
ENDCHAR
STARTCHAR h
ENCODING 104
SWIDTH 1000 0
DWIDTH 6 0
BBX 5 7 0 1
BITMAP
80
80
F0
88
88
88
88
ENDCHAR
STARTCHAR i
ENCODING 105
SWIDTH 1000 0
DWIDTH 6 0
BBX 3 6 1 1
BITMAP
40
00
C0
40
40
E0
ENDCHAR
STARTCHAR j
ENCODING 106
SWIDTH 1000 0
DWIDTH 6 0
BBX 5 7 0 0
BITMAP
08
00
08
08
08
88
70
ENDCHAR
STARTCHAR k
ENCODING 107
SWIDTH 1000 0
DWIDTH 6 0
BBX 5 7 0 1
BITMAP
80
80
88
90
E0
90
88
ENDCHAR
STARTCHAR l
ENCODING 108
SWIDTH 250 0
DWIDTH 6 0
BBX 3 7 1 1
BITMAP
C0
40
40
40
40
40
E0
ENDCHAR
STARTCHAR m
ENCODING 109
SWIDTH 1000 0
DWIDTH 6 0
BBX 5 5 0 1
BITMAP
D0
A8
A8
A8
A8
ENDCHAR
STARTCHAR n
ENCODING 110
SWIDTH 1000 0
DWIDTH 6 0
BBX 5 5 0 1
BITMAP
F0
88
88
88
88
ENDCHAR
STARTCHAR o
ENCODING 111
SWIDTH 1000 0
DWIDTH 6 0
BBX 5 5 0 1
BITMAP
70
88
88
88
70
ENDCHAR
STARTCHAR p
ENCODING 112
SWIDTH 1000 0
DWIDTH 6 0
BBX 5 6 0 0
BITMAP
F0
88
88
F0
80
80
ENDCHAR
STARTCHAR q
ENCODING 113
SWIDTH 1000 0
DWIDTH 6 0
BBX 5 6 0 0
BITMAP
78
88
88
78
08
08
ENDCHAR
STARTCHAR r
ENCODING 114
SWIDTH 1000 0
DWIDTH 6 0
BBX 5 5 0 1
BITMAP
F0
88
80
80
80
ENDCHAR
STARTCHAR s
ENCODING 115
SWIDTH 500 0
DWIDTH 6 0
BBX 5 5 0 1
BITMAP
78
80
70
08
F0
ENDCHAR
STARTCHAR t
ENCODING 116
SWIDTH 1000 0
DWIDTH 6 0
BBX 5 7 0 1
BITMAP
20
20
F8
20
20
20
18
ENDCHAR
STARTCHAR u
ENCODING 117
SWIDTH 1000 0
DWIDTH 6 0
BBX 5 5 0 1
BITMAP
88
88
88
88
78
ENDCHAR
STARTCHAR v
ENCODING 118
SWIDTH 1000 0
DWIDTH 6 0
BBX 5 5 0 1
BITMAP
88
88
50
50
20
ENDCHAR
STARTCHAR w
ENCODING 119
SWIDTH 1000 0
DWIDTH 6 0
BBX 5 5 0 1
BITMAP
A8
A8
A8
F8
50
ENDCHAR
STARTCHAR x
ENCODING 120
SWIDTH 1000 0
DWIDTH 6 0
BBX 5 5 0 1
BITMAP
88
50
20
50
88
ENDCHAR
STARTCHAR y
ENCODING 121
SWIDTH 1000 0
DWIDTH 6 0
BBX 5 6 0 0
BITMAP
88
88
88
78
08
70
ENDCHAR
STARTCHAR z
ENCODING 122
SWIDTH 1000 0
DWIDTH 6 0
BBX 5 5 0 1
BITMAP
F8
18
20
C0
F8
ENDCHAR
STARTCHAR braceleft
ENCODING 123
SWIDTH 1000 0
DWIDTH 6 0
BBX 4 7 1 1
BITMAP
30
40
40
C0
40
40
30
ENDCHAR
STARTCHAR bar
ENCODING 124
SWIDTH 1000 0
DWIDTH 6 0
BBX 1 7 2 1
BITMAP
80
80
80
80
80
80
80
ENDCHAR
STARTCHAR braceright
ENCODING 125
SWIDTH 1000 0
DWIDTH 6 0
BBX 4 7 1 1
BITMAP
C0
20
20
30
20
20
C0
ENDCHAR
STARTCHAR asciitilde
ENCODING 126
SWIDTH 625 0
DWIDTH 6 0
BBX 5 2 0 3
BITMAP
48
B0
ENDCHAR
STARTCHAR exclamdown
ENCODING 161
SWIDTH 250 0
DWIDTH 6 0
BBX 1 7 2 1
BITMAP
80
80
00
80
80
80
80
ENDCHAR
STARTCHAR cent
ENCODING 162
SWIDTH 1000 0
DWIDTH 6 0
BBX 5 6 0 1
BITMAP
20
78
80
80
78
20
ENDCHAR
STARTCHAR sterling
ENCODING 163
SWIDTH 1000 0
DWIDTH 6 0
BBX 5 7 0 1
BITMAP
30
48
40
E0
40
40
F8
ENDCHAR
STARTCHAR currency
ENCODING 164
SWIDTH 1000 0
DWIDTH 6 0
BBX 5 6 0 1
BITMAP
88
70
88
88
70
88
ENDCHAR
STARTCHAR yen
ENCODING 165
SWIDTH 1000 0
DWIDTH 6 0
BBX 5 7 0 1
BITMAP
88
88
70
20
F8
20
20
ENDCHAR
STARTCHAR brokenbar
ENCODING 166
SWIDTH 1000 0
DWIDTH 6 0
BBX 1 7 2 1
BITMAP
80
80
80
00
80
80
80
ENDCHAR
STARTCHAR section
ENCODING 167
SWIDTH 1000 0
DWIDTH 6 0
BBX 5 7 0 1
BITMAP
78
80
F0
88
78
08
F0
ENDCHAR
STARTCHAR dieresis
ENCODING 168
SWIDTH 1000 0
DWIDTH 6 0
BBX 3 1 1 7
BITMAP
A0
ENDCHAR
STARTCHAR copyright
ENCODING 169
SWIDTH 1000 0
DWIDTH 6 0
BBX 6 7 0 1
BITMAP
30
48
B4
A4
B4
48
30
ENDCHAR
STARTCHAR ordfeminine
ENCODING 170
SWIDTH 1000 0
DWIDTH 6 0
BBX 3 5 1 3
BITMAP
60
A0
E0
00
E0
ENDCHAR
STARTCHAR guillemotleft
ENCODING 171
SWIDTH 1000 0
DWIDTH 6 0
BBX 5 3 0 3
BITMAP
48
90
48
ENDCHAR
STARTCHAR logicalnot
ENCODING 172
SWIDTH 500 0
DWIDTH 6 0
BBX 5 2 0 3
BITMAP
F8
08
ENDCHAR
STARTCHAR uni00AD
ENCODING 173
SWIDTH 1000 0
DWIDTH 6 0
BBX 5 1 0 4
BITMAP
F8
ENDCHAR
STARTCHAR registered
ENCODING 174
SWIDTH 1000 0
DWIDTH 6 0
BBX 6 7 0 1
BITMAP
30
48
B4
A4
A4
48
30
ENDCHAR
STARTCHAR macron
ENCODING 175
SWIDTH 500 0
DWIDTH 6 0
BBX 5 1 0 7
BITMAP
F8
ENDCHAR
STARTCHAR degree
ENCODING 176
SWIDTH 1000 0
DWIDTH 6 0
BBX 4 3 0 5
BITMAP
60
90
60
ENDCHAR
STARTCHAR plusminus
ENCODING 177
SWIDTH 1000 0
DWIDTH 6 0
BBX 3 5 1 2
BITMAP
40
E0
40
00
E0
ENDCHAR
STARTCHAR uni00B2
ENCODING 178
SWIDTH 1000 0
DWIDTH 6 0
BBX 3 5 0 3
BITMAP
C0
20
60
80
E0
ENDCHAR
STARTCHAR uni00B3
ENCODING 179
SWIDTH 1000 0
DWIDTH 6 0
BBX 3 5 1 3
BITMAP
C0
20
40
20
C0
ENDCHAR
STARTCHAR acute
ENCODING 180
SWIDTH 1000 0
DWIDTH 6 0
BBX 2 2 1 6
BITMAP
40
80
ENDCHAR
STARTCHAR mu
ENCODING 181
SWIDTH 1000 0
DWIDTH 6 0
BBX 5 5 0 1
BITMAP
88
88
88
F0
80
ENDCHAR
STARTCHAR paragraph
ENCODING 182
SWIDTH 1000 0
DWIDTH 6 0
BBX 5 7 0 1
BITMAP
78
E8
E8
68
28
28
28
ENDCHAR
STARTCHAR periodcentered
ENCODING 183
SWIDTH 1000 0
DWIDTH 6 0
BBX 2 2 2 4
BITMAP
C0
C0
ENDCHAR
STARTCHAR cedilla
ENCODING 184
SWIDTH 375 0
DWIDTH 6 0
BBX 2 2 1 0
BITMAP
40
80
ENDCHAR
STARTCHAR uni00B9
ENCODING 185
SWIDTH 1000 0
DWIDTH 6 0
BBX 2 5 1 3
BITMAP
40
C0
40
40
40
ENDCHAR
STARTCHAR ordmasculine
ENCODING 186
SWIDTH 500 0
DWIDTH 6 0
BBX 3 5 0 3
BITMAP
40
A0
40
00
E0
ENDCHAR
STARTCHAR guillemotright
ENCODING 187
SWIDTH 1000 0
DWIDTH 6 0
BBX 4 3 0 3
BITMAP
A0
50
A0
ENDCHAR
STARTCHAR onequarter
ENCODING 188
SWIDTH 750 0
DWIDTH 6 0
BBX 5 7 0 1
BITMAP
80
90
A0
58
A8
38
08
ENDCHAR
STARTCHAR onehalf
ENCODING 189
SWIDTH 750 0
DWIDTH 6 0
BBX 5 7 0 1
BITMAP
80
90
A0
50
88
10
18
ENDCHAR
STARTCHAR threequarters
ENCODING 190
SWIDTH 875 0
DWIDTH 6 0
BBX 6 7 0 1
BITMAP
80
48
90
6C
D4
1C
04
ENDCHAR
STARTCHAR questiondown
ENCODING 191
SWIDTH 1000 0
DWIDTH 6 0
BBX 5 7 0 1
BITMAP
20
00
20
60
80
88
70
ENDCHAR
STARTCHAR Agrave
ENCODING 192
SWIDTH 1000 0
DWIDTH 6 0
BBX 5 7 0 1
BITMAP
40
20
70
88
F8
88
88
ENDCHAR
STARTCHAR Aacute
ENCODING 193
SWIDTH 1000 0
DWIDTH 6 0
BBX 5 7 0 1
BITMAP
10
20
70
88
F8
88
88
ENDCHAR
STARTCHAR Acircumflex
ENCODING 194
SWIDTH 1000 0
DWIDTH 6 0
BBX 5 7 0 1
BITMAP
20
00
70
88
F8
88
88
ENDCHAR
STARTCHAR Atilde
ENCODING 195
SWIDTH 1000 0
DWIDTH 6 0
BBX 5 7 0 1
BITMAP
F8
00
70
88
F8
88
88
ENDCHAR
STARTCHAR Adieresis
ENCODING 196
SWIDTH 1000 0
DWIDTH 6 0
BBX 5 7 0 1
BITMAP
50
00
70
88
F8
88
88
ENDCHAR
STARTCHAR Aring
ENCODING 197
SWIDTH 1000 0
DWIDTH 6 0
BBX 5 7 0 1
BITMAP
20
00
70
88
F8
88
88
ENDCHAR
STARTCHAR AE
ENCODING 198
SWIDTH 1000 0
DWIDTH 6 0
BBX 5 7 0 1
BITMAP
78
A0
A0
F8
A0
A0
B8
ENDCHAR
STARTCHAR Ccedilla
ENCODING 199
SWIDTH 1000 0
DWIDTH 6 0
BBX 5 8 0 0
BITMAP
70
88
80
80
80
88
70
20
ENDCHAR
STARTCHAR Egrave
ENCODING 200
SWIDTH 1000 0
DWIDTH 6 0
BBX 5 7 0 1
BITMAP
40
20
F8
80
F0
80
F8
ENDCHAR
STARTCHAR Eacute
ENCODING 201
SWIDTH 1000 0
DWIDTH 6 0
BBX 5 7 0 1
BITMAP
10
20
F8
80
F0
80
F8
ENDCHAR
STARTCHAR Ecircumflex
ENCODING 202
SWIDTH 1000 0
DWIDTH 6 0
BBX 5 7 0 1
BITMAP
40
00
F8
80
F0
80
F8
ENDCHAR
STARTCHAR Edieresis
ENCODING 203
SWIDTH 1000 0
DWIDTH 6 0
BBX 5 7 0 1
BITMAP
50
00
F8
80
F0
80
F8
ENDCHAR
STARTCHAR Igrave
ENCODING 204
SWIDTH 375 0
DWIDTH 6 0
BBX 3 7 1 1
BITMAP
80
40
00
E0
40
40
E0
ENDCHAR
STARTCHAR Iacute
ENCODING 205
SWIDTH 375 0
DWIDTH 6 0
BBX 3 7 1 1
BITMAP
20
40
00
E0
40
40
E0
ENDCHAR
STARTCHAR Icircumflex
ENCODING 206
SWIDTH 1000 0
DWIDTH 6 0
BBX 3 7 1 1
BITMAP
40
A0
00
E0
40
40
E0
ENDCHAR
STARTCHAR Idieresis
ENCODING 207
SWIDTH 1000 0
DWIDTH 6 0
BBX 3 7 1 1
BITMAP
A0
00
E0
40
40
40
E0
ENDCHAR
STARTCHAR Eth
ENCODING 208
SWIDTH 1000 0
DWIDTH 6 0
BBX 5 7 0 1
BITMAP
70
48
48
E8
48
48
70
ENDCHAR
STARTCHAR Ntilde
ENCODING 209
SWIDTH 1000 0
DWIDTH 6 0
BBX 5 7 0 1
BITMAP
70
00
88
C8
A8
98
88
ENDCHAR
STARTCHAR Ograve
ENCODING 210
SWIDTH 1000 0
DWIDTH 6 0
BBX 5 7 0 1
BITMAP
40
20
70
88
88
88
70
ENDCHAR
STARTCHAR Oacute
ENCODING 211
SWIDTH 1000 0
DWIDTH 6 0
BBX 5 7 0 1
BITMAP
10
20
70
88
88
88
70
ENDCHAR
STARTCHAR Ocircumflex
ENCODING 212
SWIDTH 1000 0
DWIDTH 6 0
BBX 5 7 0 1
BITMAP
20
00
70
88
88
88
70
ENDCHAR
STARTCHAR Otilde
ENCODING 213
SWIDTH 1000 0
DWIDTH 6 0
BBX 5 7 0 1
BITMAP
70
00
70
88
88
88
70
ENDCHAR
STARTCHAR Odieresis
ENCODING 214
SWIDTH 1000 0
DWIDTH 6 0
BBX 5 7 0 1
BITMAP
50
00
70
88
88
88
70
ENDCHAR
STARTCHAR multiply
ENCODING 215
SWIDTH 1000 0
DWIDTH 6 0
BBX 3 3 1 3
BITMAP
A0
40
A0
ENDCHAR
STARTCHAR Oslash
ENCODING 216
SWIDTH 1000 0
DWIDTH 6 0
BBX 5 7 0 1
BITMAP
70
88
98
A8
C8
88
70
ENDCHAR
STARTCHAR Ugrave
ENCODING 217
SWIDTH 1000 0
DWIDTH 6 0
BBX 5 7 0 1
BITMAP
40
20
88
88
88
88
70
ENDCHAR
STARTCHAR Uacute
ENCODING 218
SWIDTH 1000 0
DWIDTH 6 0
BBX 5 7 0 1
BITMAP
10
20
88
88
88
88
70
ENDCHAR
STARTCHAR Ucircumflex
ENCODING 219
SWIDTH 1000 0
DWIDTH 6 0
BBX 5 7 0 1
BITMAP
20
00
88
88
88
88
70
ENDCHAR
STARTCHAR Udieresis
ENCODING 220
SWIDTH 1000 0
DWIDTH 6 0
BBX 5 7 0 1
BITMAP
50
00
88
88
88
88
70
ENDCHAR
STARTCHAR Yacute
ENCODING 221
SWIDTH 1000 0
DWIDTH 6 0
BBX 5 7 0 1
BITMAP
10
20
88
88
50
20
20
ENDCHAR
STARTCHAR Thorn
ENCODING 222
SWIDTH 1000 0
DWIDTH 6 0
BBX 5 7 0 1
BITMAP
80
F0
88
88
88
F0
80
ENDCHAR
STARTCHAR germandbls
ENCODING 223
SWIDTH 1000 0
DWIDTH 6 0
BBX 5 7 0 1
BITMAP
60
90
90
A0
90
88
B0
ENDCHAR
STARTCHAR agrave
ENCODING 224
SWIDTH 1000 0
DWIDTH 6 0
BBX 5 7 0 1
BITMAP
40
20
70
08
78
88
78
ENDCHAR
STARTCHAR aacute
ENCODING 225
SWIDTH 1000 0
DWIDTH 6 0
BBX 5 7 0 1
BITMAP
10
20
70
08
78
88
78
ENDCHAR
STARTCHAR acircumflex
ENCODING 226
SWIDTH 1000 0
DWIDTH 6 0
BBX 5 7 0 1
BITMAP
20
00
70
08
78
88
78
ENDCHAR
STARTCHAR atilde
ENCODING 227
SWIDTH 1000 0
DWIDTH 6 0
BBX 5 7 0 1
BITMAP
70
00
70
08
78
88
78
ENDCHAR
STARTCHAR adieresis
ENCODING 228
SWIDTH 1000 0
DWIDTH 6 0
BBX 5 7 0 1
BITMAP
50
00
70
08
78
88
78
ENDCHAR
STARTCHAR aring
ENCODING 229
SWIDTH 1000 0
DWIDTH 6 0
BBX 5 7 0 1
BITMAP
20
00
70
08
78
88
78
ENDCHAR
STARTCHAR ae
ENCODING 230
SWIDTH 1000 0
DWIDTH 6 0
BBX 5 5 0 1
BITMAP
50
28
70
A0
78
ENDCHAR
STARTCHAR ccedilla
ENCODING 231
SWIDTH 1000 0
DWIDTH 6 0
BBX 5 6 0 0
BITMAP
78
80
80
80
78
20
ENDCHAR
STARTCHAR egrave
ENCODING 232
SWIDTH 1000 0
DWIDTH 6 0
BBX 5 7 0 1
BITMAP
40
20
70
88
F8
80
70
ENDCHAR
STARTCHAR eacute
ENCODING 233
SWIDTH 1000 0
DWIDTH 6 0
BBX 5 7 0 1
BITMAP
10
20
70
88
F8
80
70
ENDCHAR
STARTCHAR ecircumflex
ENCODING 234
SWIDTH 1000 0
DWIDTH 6 0
BBX 5 7 0 1
BITMAP
70
00
70
88
F8
80
70
ENDCHAR
STARTCHAR edieresis
ENCODING 235
SWIDTH 1000 0
DWIDTH 6 0
BBX 5 7 0 1
BITMAP
50
00
70
88
F8
80
70
ENDCHAR
STARTCHAR igrave
ENCODING 236
SWIDTH 375 0
DWIDTH 6 0
BBX 3 7 1 1
BITMAP
80
40
00
C0
40
40
E0
ENDCHAR
STARTCHAR iacute
ENCODING 237
SWIDTH 1000 0
DWIDTH 6 0
BBX 3 7 1 1
BITMAP
20
40
00
C0
40
40
E0
ENDCHAR
STARTCHAR icircumflex
ENCODING 238
SWIDTH 1000 0
DWIDTH 6 0
BBX 3 7 1 1
BITMAP
40
A0
00
C0
40
40
E0
ENDCHAR
STARTCHAR idieresis
ENCODING 239
SWIDTH 1000 0
DWIDTH 6 0
BBX 3 6 1 1
BITMAP
A0
00
C0
40
40
E0
ENDCHAR
STARTCHAR eth
ENCODING 240
SWIDTH 1000 0
DWIDTH 6 0
BBX 5 7 0 1
BITMAP
18
30
08
78
88
88
70
ENDCHAR
STARTCHAR ntilde
ENCODING 241
SWIDTH 1000 0
DWIDTH 6 0
BBX 5 7 0 1
BITMAP
70
00
F0
88
88
88
88
ENDCHAR
STARTCHAR ograve
ENCODING 242
SWIDTH 1000 0
DWIDTH 6 0
BBX 5 7 0 1
BITMAP
40
20
00
70
88
88
70
ENDCHAR
STARTCHAR oacute
ENCODING 243
SWIDTH 1000 0
DWIDTH 6 0
BBX 5 7 0 1
BITMAP
10
20
00
70
88
88
70
ENDCHAR
STARTCHAR ocircumflex
ENCODING 244
SWIDTH 1000 0
DWIDTH 6 0
BBX 5 6 0 1
BITMAP
20
00
70
88
88
70
ENDCHAR
STARTCHAR otilde
ENCODING 245
SWIDTH 1000 0
DWIDTH 6 0
BBX 5 6 0 1
BITMAP
70
00
70
88
88
70
ENDCHAR
STARTCHAR odieresis
ENCODING 246
SWIDTH 1000 0
DWIDTH 6 0
BBX 5 6 0 1
BITMAP
50
00
70
88
88
70
ENDCHAR
STARTCHAR divide
ENCODING 247
SWIDTH 1000 0
DWIDTH 6 0
BBX 5 5 0 2
BITMAP
20
00
F8
00
20
ENDCHAR
STARTCHAR oslash
ENCODING 248
SWIDTH 1000 0
DWIDTH 6 0
BBX 5 5 0 1
BITMAP
70
98
A8
C8
70
ENDCHAR
STARTCHAR ugrave
ENCODING 249
SWIDTH 1000 0
DWIDTH 6 0
BBX 5 6 0 1
BITMAP
40
20
88
88
88
78
ENDCHAR
STARTCHAR uacute
ENCODING 250
SWIDTH 1000 0
DWIDTH 6 0
BBX 5 6 0 1
BITMAP
10
20
88
88
88
78
ENDCHAR
STARTCHAR ucircumflex
ENCODING 251
SWIDTH 1000 0
DWIDTH 6 0
BBX 5 6 0 1
BITMAP
20
00
88
88
88
78
ENDCHAR
STARTCHAR udieresis
ENCODING 252
SWIDTH 1000 0
DWIDTH 6 0
BBX 5 6 0 1
BITMAP
50
00
88
88
88
78
ENDCHAR
STARTCHAR yacute
ENCODING 253
SWIDTH 1000 0
DWIDTH 6 0
BBX 5 8 0 0
BITMAP
10
20
88
88
88
78
08
70
ENDCHAR
STARTCHAR thorn
ENCODING 254
SWIDTH 1000 0
DWIDTH 6 0
BBX 5 8 0 0
BITMAP
80
80
F0
88
88
88
F0
80
ENDCHAR
STARTCHAR ydieresis
ENCODING 255
SWIDTH 1000 0
DWIDTH 6 0
BBX 5 8 0 0
BITMAP
50
00
88
88
88
78
08
70
ENDCHAR
STARTCHAR Amacron
ENCODING 256
SWIDTH 1000 0
DWIDTH 6 0
BBX 5 7 0 1
BITMAP
70
00
70
88
F8
88
88
ENDCHAR
STARTCHAR amacron
ENCODING 257
SWIDTH 1000 0
DWIDTH 6 0
BBX 5 7 0 1
BITMAP
70
00
70
08
78
88
78
ENDCHAR
STARTCHAR Abreve
ENCODING 258
SWIDTH 1000 0
DWIDTH 6 0
BBX 5 7 0 1
BITMAP
50
20
70
88
F8
88
88
ENDCHAR
STARTCHAR abreve
ENCODING 259
SWIDTH 1000 0
DWIDTH 6 0
BBX 5 7 0 1
BITMAP
50
20
70
08
78
88
78
ENDCHAR
STARTCHAR Aogonek
ENCODING 260
SWIDTH 1000 0
DWIDTH 6 0
BBX 6 8 0 0
BITMAP
70
88
88
F8
88
88
88
0C
ENDCHAR
STARTCHAR aogonek
ENCODING 261
SWIDTH 1000 0
DWIDTH 6 0
BBX 6 6 0 0
BITMAP
70
08
78
88
78
0C
ENDCHAR
STARTCHAR Cacute
ENCODING 262
SWIDTH 1000 0
DWIDTH 6 0
BBX 5 7 0 1
BITMAP
10
20
70
88
80
88
70
ENDCHAR
STARTCHAR cacute
ENCODING 263
SWIDTH 1000 0
DWIDTH 6 0
BBX 5 7 0 1
BITMAP
10
20
00
78
80
80
78
ENDCHAR
STARTCHAR Ccircumflex
ENCODING 264
SWIDTH 1000 0
DWIDTH 6 0
BBX 5 7 0 1
BITMAP
20
00
70
88
80
88
70
ENDCHAR
STARTCHAR ccircumflex
ENCODING 265
SWIDTH 1000 0
DWIDTH 6 0
BBX 5 6 0 1
BITMAP
20
00
F8
80
80
F8
ENDCHAR
STARTCHAR Cdotaccent
ENCODING 266
SWIDTH 1000 0
DWIDTH 6 0
BBX 5 7 0 1
BITMAP
20
00
70
88
80
88
70
ENDCHAR
STARTCHAR cdotaccent
ENCODING 267
SWIDTH 1000 0
DWIDTH 6 0
BBX 5 6 0 1
BITMAP
20
00
F8
80
80
F8
ENDCHAR
STARTCHAR Ccaron
ENCODING 268
SWIDTH 1000 0
DWIDTH 6 0
BBX 5 7 0 1
BITMAP
50
20
70
88
80
88
70
ENDCHAR
STARTCHAR ccaron
ENCODING 269
SWIDTH 1000 0
DWIDTH 6 0
BBX 5 7 0 1
BITMAP
50
20
00
F8
80
80
F8
ENDCHAR
STARTCHAR Dcaron
ENCODING 270
SWIDTH 1000 0
DWIDTH 6 0
BBX 5 7 0 1
BITMAP
50
20
F0
88
88
88
F0
ENDCHAR
STARTCHAR dcaron
ENCODING 271
SWIDTH 1000 0
DWIDTH 6 0
BBX 6 7 0 1
BITMAP
14
18
10
70
90
90
70
ENDCHAR
STARTCHAR Dcroat
ENCODING 272
SWIDTH 1000 0
DWIDTH 6 0
BBX 5 7 0 1
BITMAP
70
48
48
E8
48
48
70
ENDCHAR
STARTCHAR dcroat
ENCODING 273
SWIDTH 1000 0
DWIDTH 6 0
BBX 5 7 0 1
BITMAP
10
38
10
70
90
90
70
ENDCHAR
STARTCHAR Emacron
ENCODING 274
SWIDTH 1000 0
DWIDTH 6 0
BBX 5 7 0 1
BITMAP
70
00
F8
80
F0
80
F8
ENDCHAR
STARTCHAR emacron
ENCODING 275
SWIDTH 1000 0
DWIDTH 6 0
BBX 5 7 0 1
BITMAP
70
00
70
88
F8
80
70
ENDCHAR
STARTCHAR Ebreve
ENCODING 276
SWIDTH 1000 0
DWIDTH 6 0
BBX 5 7 0 1
BITMAP
50
20
F8
80
F0
80
F8
ENDCHAR
STARTCHAR ebreve
ENCODING 277
SWIDTH 1000 0
DWIDTH 6 0
BBX 5 7 0 1
BITMAP
50
20
70
88
F8
80
70
ENDCHAR
STARTCHAR Edotaccent
ENCODING 278
SWIDTH 1000 0
DWIDTH 6 0
BBX 5 7 0 1
BITMAP
20
00
F8
80
F0
80
F8
ENDCHAR
STARTCHAR edotaccent
ENCODING 279
SWIDTH 1000 0
DWIDTH 6 0
BBX 5 7 0 1
BITMAP
20
00
70
88
F8
80
70
ENDCHAR
STARTCHAR Eogonek
ENCODING 280
SWIDTH 1000 0
DWIDTH 6 0
BBX 6 8 0 0
BITMAP
F8
80
80
F0
80
80
F8
0C
ENDCHAR
STARTCHAR eogonek
ENCODING 281
SWIDTH 1000 0
DWIDTH 6 0
BBX 5 6 0 0
BITMAP
70
88
F8
80
70
20
ENDCHAR
STARTCHAR Ecaron
ENCODING 282
SWIDTH 1000 0
DWIDTH 6 0
BBX 5 7 0 1
BITMAP
50
20
F8
80
F0
80
F8
ENDCHAR
STARTCHAR ecaron
ENCODING 283
SWIDTH 1000 0
DWIDTH 6 0
BBX 5 7 0 1
BITMAP
50
20
70
88
F8
80
70
ENDCHAR
STARTCHAR Gcircumflex
ENCODING 284
SWIDTH 1000 0
DWIDTH 6 0
BBX 5 7 0 1
BITMAP
20
00
70
80
B8
88
78
ENDCHAR
STARTCHAR gcircumflex
ENCODING 285
SWIDTH 1000 0
DWIDTH 6 0
BBX 5 8 0 0
BITMAP
20
00
78
88
88
78
08
70
ENDCHAR
STARTCHAR Gbreve
ENCODING 286
SWIDTH 1000 0
DWIDTH 6 0
BBX 5 7 0 1
BITMAP
50
20
70
80
B8
88
78
ENDCHAR
STARTCHAR gbreve
ENCODING 287
SWIDTH 1000 0
DWIDTH 6 0
BBX 5 8 0 0
BITMAP
50
20
78
88
88
78
08
70
ENDCHAR
STARTCHAR Gdotaccent
ENCODING 288
SWIDTH 1000 0
DWIDTH 6 0
BBX 5 7 0 1
BITMAP
20
00
70
80
B8
88
78
ENDCHAR
STARTCHAR gdotaccent
ENCODING 289
SWIDTH 1000 0
DWIDTH 6 0
BBX 5 8 0 0
BITMAP
20
00
78
88
88
78
08
70
ENDCHAR
STARTCHAR uni0122
ENCODING 290
SWIDTH 1000 0
DWIDTH 6 0
BBX 5 8 0 0
BITMAP
70
80
80
B8
88
88
78
20
ENDCHAR
STARTCHAR uni0123
ENCODING 291
SWIDTH 1000 0
DWIDTH 6 0
BBX 5 8 0 0
BITMAP
20
00
78
88
88
78
08
70
ENDCHAR
STARTCHAR Hcircumflex
ENCODING 292
SWIDTH 1000 0
DWIDTH 6 0
BBX 5 7 0 1
BITMAP
20
00
88
88
F8
88
88
ENDCHAR
STARTCHAR hcircumflex
ENCODING 293
SWIDTH 1000 0
DWIDTH 6 0
BBX 5 7 0 1
BITMAP
20
00
80
80
F8
88
88
ENDCHAR
STARTCHAR Hbar
ENCODING 294
SWIDTH 750 0
DWIDTH 6 0
BBX 5 7 0 1
BITMAP
50
F8
50
70
50
50
50
ENDCHAR
STARTCHAR hbar
ENCODING 295
SWIDTH 625 0
DWIDTH 6 0
BBX 5 7 0 1
BITMAP
40
E0
40
70
48
48
48
ENDCHAR
STARTCHAR Itilde
ENCODING 296
SWIDTH 1000 0
DWIDTH 6 0
BBX 3 7 1 1
BITMAP
E0
00
E0
40
40
40
E0
ENDCHAR
STARTCHAR itilde
ENCODING 297
SWIDTH 500 0
DWIDTH 6 0
BBX 3 6 1 1
BITMAP
E0
00
C0
40
40
E0
ENDCHAR
STARTCHAR Imacron
ENCODING 298
SWIDTH 1000 0
DWIDTH 6 0
BBX 3 7 1 1
BITMAP
E0
00
E0
40
40
40
E0
ENDCHAR
STARTCHAR imacron
ENCODING 299
SWIDTH 500 0
DWIDTH 6 0
BBX 3 6 1 1
BITMAP
E0
00
C0
40
40
E0
ENDCHAR
STARTCHAR Ibreve
ENCODING 300
SWIDTH 1000 0
DWIDTH 6 0
BBX 3 7 1 1
BITMAP
A0
40
00
E0
40
40
E0
ENDCHAR
STARTCHAR ibreve
ENCODING 301
SWIDTH 500 0
DWIDTH 6 0
BBX 3 7 1 1
BITMAP
A0
40
00
C0
40
40
E0
ENDCHAR
STARTCHAR Iogonek
ENCODING 302
SWIDTH 250 0
DWIDTH 6 0
BBX 3 8 1 0
BITMAP
E0
40
40
40
40
40
E0
40
ENDCHAR
STARTCHAR iogonek
ENCODING 303
SWIDTH 1000 0
DWIDTH 6 0
BBX 3 7 0 0
BITMAP
40
00
C0
40
40
E0
20
ENDCHAR
STARTCHAR Idotaccent
ENCODING 304
SWIDTH 250 0
DWIDTH 6 0
BBX 3 7 1 1
BITMAP
40
00
E0
40
40
40
E0
ENDCHAR
STARTCHAR dotlessi
ENCODING 305
SWIDTH 1000 0
DWIDTH 6 0
BBX 3 4 1 1
BITMAP
C0
40
40
E0
ENDCHAR
STARTCHAR IJ
ENCODING 306
SWIDTH 625 0
DWIDTH 6 0
BBX 5 7 0 1
BITMAP
E8
48
48
48
48
E8
30
ENDCHAR
STARTCHAR ij
ENCODING 307
SWIDTH 625 0
DWIDTH 6 0
BBX 5 7 0 0
BITMAP
48
00
C8
48
48
E8
10
ENDCHAR
STARTCHAR Jcircumflex
ENCODING 308
SWIDTH 625 0
DWIDTH 6 0
BBX 5 7 0 1
BITMAP
10
28
10
10
90
90
60
ENDCHAR
STARTCHAR jcircumflex
ENCODING 309
SWIDTH 625 0
DWIDTH 6 0
BBX 5 8 0 0
BITMAP
10
28
00
10
10
10
90
60
ENDCHAR
STARTCHAR uni0136
ENCODING 310
SWIDTH 1000 0
DWIDTH 6 0
BBX 5 8 0 0
BITMAP
88
88
90
E0
90
88
88
20
ENDCHAR
STARTCHAR uni0137
ENCODING 311
SWIDTH 1000 0
DWIDTH 6 0
BBX 5 8 0 0
BITMAP
80
80
88
90
E0
90
88
20
ENDCHAR
STARTCHAR kgreenlandic
ENCODING 312
SWIDTH 1000 0
DWIDTH 6 0
BBX 5 5 0 1
BITMAP
88
90
E0
90
88
ENDCHAR
STARTCHAR Lacute
ENCODING 313
SWIDTH 1000 0
DWIDTH 6 0
BBX 5 7 0 1
BITMAP
90
A0
80
80
80
80
F8
ENDCHAR
STARTCHAR lacute
ENCODING 314
SWIDTH 375 0
DWIDTH 6 0
BBX 3 7 1 1
BITMAP
20
40
00
C0
40
40
E0
ENDCHAR
STARTCHAR uni013B
ENCODING 315
SWIDTH 1000 0
DWIDTH 6 0
BBX 5 8 0 0
BITMAP
80
80
80
80
80
80
F8
20
ENDCHAR
STARTCHAR uni013C
ENCODING 316
SWIDTH 250 0
DWIDTH 6 0
BBX 3 8 1 0
BITMAP
C0
40
40
40
40
40
E0
40
ENDCHAR
STARTCHAR Lcaron
ENCODING 317
SWIDTH 1000 0
DWIDTH 6 0
BBX 5 7 0 1
BITMAP
A0
A0
80
80
80
80
F8
ENDCHAR
STARTCHAR lcaron
ENCODING 318
SWIDTH 500 0
DWIDTH 6 0
BBX 4 7 1 1
BITMAP
D0
50
40
40
40
40
E0
ENDCHAR
STARTCHAR Ldot
ENCODING 319
SWIDTH 1000 0
DWIDTH 6 0
BBX 5 7 0 1
BITMAP
80
80
90
80
80
80
F8
ENDCHAR
STARTCHAR ldot
ENCODING 320
SWIDTH 375 0
DWIDTH 6 0
BBX 4 7 1 1
BITMAP
C0
40
50
40
40
40
E0
ENDCHAR
STARTCHAR Lslash
ENCODING 321
SWIDTH 625 0
DWIDTH 6 0
BBX 5 7 0 1
BITMAP
40
40
60
C0
40
40
78
ENDCHAR
STARTCHAR lslash
ENCODING 322
SWIDTH 1000 0
DWIDTH 6 0
BBX 3 7 1 1
BITMAP
C0
40
60
C0
40
40
E0
ENDCHAR
STARTCHAR Nacute
ENCODING 323
SWIDTH 1000 0
DWIDTH 6 0
BBX 5 7 0 1
BITMAP
10
20
88
C8
A8
98
88
ENDCHAR
STARTCHAR nacute
ENCODING 324
SWIDTH 1000 0
DWIDTH 6 0
BBX 5 7 0 1
BITMAP
10
20
F0
88
88
88
88
ENDCHAR
STARTCHAR uni0145
ENCODING 325
SWIDTH 1000 0
DWIDTH 6 0
BBX 5 8 0 0
BITMAP
88
88
C8
A8
98
88
88
20
ENDCHAR
STARTCHAR uni0146
ENCODING 326
SWIDTH 1000 0
DWIDTH 6 0
BBX 5 6 0 0
BITMAP
F0
88
88
88
88
20
ENDCHAR
STARTCHAR Ncaron
ENCODING 327
SWIDTH 1000 0
DWIDTH 6 0
BBX 5 7 0 1
BITMAP
50
20
88
C8
A8
98
88
ENDCHAR
STARTCHAR ncaron
ENCODING 328
SWIDTH 1000 0
DWIDTH 6 0
BBX 5 7 0 1
BITMAP
50
20
00
F0
88
88
88
ENDCHAR
STARTCHAR napostrophe
ENCODING 329
SWIDTH 625 0
DWIDTH 6 0
BBX 5 7 0 1
BITMAP
80
80
70
48
48
48
48
ENDCHAR
STARTCHAR Eng
ENCODING 330
SWIDTH 1000 0
DWIDTH 6 0
BBX 5 8 0 0
BITMAP
F0
88
88
88
88
88
88
18
ENDCHAR
STARTCHAR eng
ENCODING 331
SWIDTH 1000 0
DWIDTH 6 0
BBX 5 6 0 0
BITMAP
F0
88
88
88
88
18
ENDCHAR
STARTCHAR Omacron
ENCODING 332
SWIDTH 1000 0
DWIDTH 6 0
BBX 5 7 0 1
BITMAP
70
00
70
88
88
88
70
ENDCHAR
STARTCHAR omacron
ENCODING 333
SWIDTH 1000 0
DWIDTH 6 0
BBX 5 6 0 1
BITMAP
70
00
70
88
88
70
ENDCHAR
STARTCHAR Obreve
ENCODING 334
SWIDTH 1000 0
DWIDTH 6 0
BBX 5 7 0 1
BITMAP
50
20
70
88
88
88
70
ENDCHAR
STARTCHAR obreve
ENCODING 335
SWIDTH 1000 0
DWIDTH 6 0
BBX 5 7 0 1
BITMAP
50
20
00
70
88
88
70
ENDCHAR
STARTCHAR Ohungarumlaut
ENCODING 336
SWIDTH 1000 0
DWIDTH 6 0
BBX 5 7 0 1
BITMAP
50
00
70
88
88
88
70
ENDCHAR
STARTCHAR ohungarumlaut
ENCODING 337
SWIDTH 1000 0
DWIDTH 6 0
BBX 5 6 0 1
BITMAP
50
00
70
88
88
70
ENDCHAR
STARTCHAR OE
ENCODING 338
SWIDTH 1000 0
DWIDTH 6 0
BBX 5 7 0 1
BITMAP
78
A0
A0
B8
A0
A0
78
ENDCHAR
STARTCHAR oe
ENCODING 339
SWIDTH 1000 0
DWIDTH 6 0
BBX 5 5 0 1
BITMAP
50
A8
B8
A0
58
ENDCHAR
STARTCHAR Racute
ENCODING 340
SWIDTH 500 0
DWIDTH 6 0
BBX 5 7 0 1
BITMAP
20
40
F0
88
F0
90
88
ENDCHAR
STARTCHAR racute
ENCODING 341
SWIDTH 1000 0
DWIDTH 6 0
BBX 5 7 0 1
BITMAP
10
20
00
F0
88
80
80
ENDCHAR
STARTCHAR uni0156
ENCODING 342
SWIDTH 500 0
DWIDTH 6 0
BBX 5 8 0 0
BITMAP
F0
88
88
F0
90
88
88
20
ENDCHAR
STARTCHAR uni0157
ENCODING 343
SWIDTH 1000 0
DWIDTH 6 0
BBX 5 6 0 0
BITMAP
F0
88
80
80
80
20
ENDCHAR
STARTCHAR Rcaron
ENCODING 344
SWIDTH 500 0
DWIDTH 6 0
BBX 5 7 0 1
BITMAP
50
20
F0
88
F0
90
88
ENDCHAR
STARTCHAR rcaron
ENCODING 345
SWIDTH 1000 0
DWIDTH 6 0
BBX 5 7 0 1
BITMAP
50
20
00
F0
88
80
80
ENDCHAR
STARTCHAR Sacute
ENCODING 346
SWIDTH 500 0
DWIDTH 6 0
BBX 5 7 0 1
BITMAP
10
20
78
80
70
08
F0
ENDCHAR
STARTCHAR sacute
ENCODING 347
SWIDTH 500 0
DWIDTH 6 0
BBX 5 7 0 1
BITMAP
10
20
78
80
70
08
F0
ENDCHAR
STARTCHAR Scircumflex
ENCODING 348
SWIDTH 500 0
DWIDTH 6 0
BBX 5 7 0 1
BITMAP
20
00
78
80
70
08
F0
ENDCHAR
STARTCHAR scircumflex
ENCODING 349
SWIDTH 500 0
DWIDTH 6 0
BBX 5 7 0 1
BITMAP
20
00
78
80
70
08
F0
ENDCHAR
STARTCHAR Scedilla
ENCODING 350
SWIDTH 1000 0
DWIDTH 6 0
BBX 5 8 0 0
BITMAP
70
88
80
70
08
88
70
20
ENDCHAR
STARTCHAR scedilla
ENCODING 351
SWIDTH 500 0
DWIDTH 6 0
BBX 5 6 0 0
BITMAP
78
80
70
08
F0
20
ENDCHAR
STARTCHAR Scaron
ENCODING 352
SWIDTH 1000 0
DWIDTH 6 0
BBX 5 7 0 1
BITMAP
50
20
78
80
70
08
F0
ENDCHAR
STARTCHAR scaron
ENCODING 353
SWIDTH 1000 0
DWIDTH 6 0
BBX 5 7 0 1
BITMAP
50
20
78
80
70
08
F0
ENDCHAR
STARTCHAR uni0162
ENCODING 354
SWIDTH 1000 0
DWIDTH 6 0
BBX 3 8 0 0
BITMAP
E0
40
40
40
40
40
60
20
ENDCHAR
STARTCHAR uni0163
ENCODING 355
SWIDTH 1000 0
DWIDTH 6 0
BBX 5 8 0 0
BITMAP
20
20
F8
20
20
20
18
10
ENDCHAR
STARTCHAR Tcaron
ENCODING 356
SWIDTH 1000 0
DWIDTH 6 0
BBX 5 7 0 1
BITMAP
70
00
F8
20
20
20
20
ENDCHAR
STARTCHAR tcaron
ENCODING 357
SWIDTH 625 0
DWIDTH 6 0
BBX 5 7 0 1
BITMAP
28
28
20
F8
20
20
18
ENDCHAR
STARTCHAR Tbar
ENCODING 358
SWIDTH 1000 0
DWIDTH 6 0
BBX 5 7 0 1
BITMAP
F8
20
20
70
20
20
20
ENDCHAR
STARTCHAR tbar
ENCODING 359
SWIDTH 1000 0
DWIDTH 6 0
BBX 5 7 0 1
BITMAP
20
20
F8
20
70
20
18
ENDCHAR
STARTCHAR Utilde
ENCODING 360
SWIDTH 1000 0
DWIDTH 6 0
BBX 5 7 0 1
BITMAP
70
00
88
88
88
88
70
ENDCHAR
STARTCHAR utilde
ENCODING 361
SWIDTH 1000 0
DWIDTH 6 0
BBX 5 6 0 1
BITMAP
70
00
88
88
88
70
ENDCHAR
STARTCHAR Umacron
ENCODING 362
SWIDTH 1000 0
DWIDTH 6 0
BBX 5 7 0 1
BITMAP
70
00
88
88
88
88
70
ENDCHAR
STARTCHAR umacron
ENCODING 363
SWIDTH 1000 0
DWIDTH 6 0
BBX 5 6 0 1
BITMAP
70
00
88
88
88
70
ENDCHAR
STARTCHAR Ubreve
ENCODING 364
SWIDTH 1000 0
DWIDTH 6 0
BBX 5 7 0 1
BITMAP
50
20
88
88
88
88
70
ENDCHAR
STARTCHAR ubreve
ENCODING 365
SWIDTH 1000 0
DWIDTH 6 0
BBX 5 6 0 1
BITMAP
50
20
88
88
88
70
ENDCHAR
STARTCHAR Uring
ENCODING 366
SWIDTH 1000 0
DWIDTH 6 0
BBX 5 7 0 1
BITMAP
20
00
88
88
88
88
70
ENDCHAR
STARTCHAR uring
ENCODING 367
SWIDTH 1000 0
DWIDTH 6 0
BBX 5 6 0 1
BITMAP
20
00
88
88
88
70
ENDCHAR
STARTCHAR Uhungarumlaut
ENCODING 368
SWIDTH 1000 0
DWIDTH 6 0
BBX 5 7 0 1
BITMAP
50
00
88
88
88
88
70
ENDCHAR
STARTCHAR uhungarumlaut
ENCODING 369
SWIDTH 1000 0
DWIDTH 6 0
BBX 5 6 0 1
BITMAP
50
00
88
88
88
70
ENDCHAR
STARTCHAR Uogonek
ENCODING 370
SWIDTH 1000 0
DWIDTH 6 0
BBX 5 8 0 0
BITMAP
88
88
88
88
88
88
78
08
ENDCHAR
STARTCHAR uogonek
ENCODING 371
SWIDTH 1000 0
DWIDTH 6 0
BBX 5 5 0 0
BITMAP
88
88
88
78
08
ENDCHAR
STARTCHAR Wcircumflex
ENCODING 372
SWIDTH 1000 0
DWIDTH 6 0
BBX 5 7 0 1
BITMAP
20
00
A8
A8
A8
A8
50
ENDCHAR
STARTCHAR wcircumflex
ENCODING 373
SWIDTH 1000 0
DWIDTH 6 0
BBX 5 6 0 1
BITMAP
20
00
A8
A8
A8
50
ENDCHAR
STARTCHAR Ycircumflex
ENCODING 374
SWIDTH 1000 0
DWIDTH 6 0
BBX 5 7 0 1
BITMAP
20
88
88
70
20
20
20
ENDCHAR
STARTCHAR ycircumflex
ENCODING 375
SWIDTH 1000 0
DWIDTH 6 0
BBX 5 7 0 0
BITMAP
20
88
88
88
78
08
78
ENDCHAR
STARTCHAR Ydieresis
ENCODING 376
SWIDTH 1000 0
DWIDTH 6 0
BBX 5 7 0 1
BITMAP
50
00
88
88
70
20
20
ENDCHAR
STARTCHAR Zacute
ENCODING 377
SWIDTH 1000 0
DWIDTH 6 0
BBX 5 7 0 1
BITMAP
10
20
F8
18
20
C0
F8
ENDCHAR
STARTCHAR zacute
ENCODING 378
SWIDTH 1000 0
DWIDTH 6 0
BBX 5 7 0 1
BITMAP
10
20
F8
18
20
C0
F8
ENDCHAR
STARTCHAR Zdotaccent
ENCODING 379
SWIDTH 1000 0
DWIDTH 6 0
BBX 5 7 0 1
BITMAP
20
00
F8
18
20
C0
F8
ENDCHAR
STARTCHAR zdotaccent
ENCODING 380
SWIDTH 1000 0
DWIDTH 6 0
BBX 5 7 0 1
BITMAP
20
00
F8
18
20
C0
F8
ENDCHAR
STARTCHAR Zcaron
ENCODING 381
SWIDTH 1000 0
DWIDTH 6 0
BBX 5 7 0 1
BITMAP
20
00
F8
18
20
C0
F8
ENDCHAR
STARTCHAR zcaron
ENCODING 382
SWIDTH 1000 0
DWIDTH 6 0
BBX 5 7 0 1
BITMAP
20
00
F8
18
20
C0
F8
ENDCHAR
STARTCHAR longs
ENCODING 383
SWIDTH 1000 0
DWIDTH 6 0
BBX 5 7 0 1
BITMAP
38
40
40
C0
40
40
40
ENDCHAR
STARTCHAR Alphatonos
ENCODING 902
SWIDTH 1000 0
DWIDTH 6 0
BBX 5 7 0 1
BITMAP
90
A8
28
38
28
28
28
ENDCHAR
STARTCHAR Epsilontonos
ENCODING 904
SWIDTH 1000 0
DWIDTH 6 0
BBX 5 7 0 1
BITMAP
B8
A0
20
38
20
20
38
ENDCHAR
STARTCHAR Etatonos
ENCODING 905
SWIDTH 1000 0
DWIDTH 6 0
BBX 5 7 0 1
BITMAP
A8
A8
28
38
28
28
28
ENDCHAR
STARTCHAR Iotatonos
ENCODING 906
SWIDTH 500 0
DWIDTH 6 0
BBX 5 7 0 1
BITMAP
B8
90
10
10
10
10
38
ENDCHAR
STARTCHAR Omicrontonos
ENCODING 908
SWIDTH 1000 0
DWIDTH 6 0
BBX 5 7 0 1
BITMAP
90
A8
28
28
28
28
10
ENDCHAR
STARTCHAR Upsilontonos
ENCODING 910
SWIDTH 1000 0
DWIDTH 6 0
BBX 5 7 0 1
BITMAP
A8
A8
28
10
10
10
10
ENDCHAR
STARTCHAR Omegatonos
ENCODING 911
SWIDTH 1000 0
DWIDTH 6 0
BBX 5 7 1 1
BITMAP
80
B0
48
48
48
30
78
ENDCHAR
STARTCHAR Alpha
ENCODING 913
SWIDTH 1000 0
DWIDTH 6 0
BBX 5 7 0 1
BITMAP
70
88
88
F8
88
88
88
ENDCHAR
STARTCHAR Beta
ENCODING 914
SWIDTH 1000 0
DWIDTH 6 0
BBX 5 7 0 1
BITMAP
F0
88
88
F0
88
88
F0
ENDCHAR
STARTCHAR Gamma
ENCODING 915
SWIDTH 1000 0
DWIDTH 6 0
BBX 5 7 0 1
BITMAP
F8
80
80
80
80
80
80
ENDCHAR
STARTCHAR uni0394
ENCODING 916
SWIDTH 1000 0
DWIDTH 6 0
BBX 5 7 0 1
BITMAP
20
20
50
50
88
88
F8
ENDCHAR
STARTCHAR Epsilon
ENCODING 917
SWIDTH 1000 0
DWIDTH 6 0
BBX 5 7 0 1
BITMAP
F8
80
80
F0
80
80
F8
ENDCHAR
STARTCHAR Zeta
ENCODING 918
SWIDTH 1000 0
DWIDTH 6 0
BBX 5 7 0 1
BITMAP
F8
08
10
20
40
80
F8
ENDCHAR
STARTCHAR Eta
ENCODING 919
SWIDTH 1000 0
DWIDTH 6 0
BBX 5 7 0 1
BITMAP
88
88
88
F8
88
88
88
ENDCHAR
STARTCHAR Theta
ENCODING 920
SWIDTH 1000 0
DWIDTH 6 0
BBX 5 7 0 1
BITMAP
70
88
88
F8
88
88
70
ENDCHAR
STARTCHAR Iota
ENCODING 921
SWIDTH 250 0
DWIDTH 6 0
BBX 5 7 0 1
BITMAP
F8
20
20
20
20
20
F8
ENDCHAR
STARTCHAR Kappa
ENCODING 922
SWIDTH 1000 0
DWIDTH 6 0
BBX 5 7 0 1
BITMAP
88
88
90
E0
90
88
88
ENDCHAR
STARTCHAR Lambda
ENCODING 923
SWIDTH 1000 0
DWIDTH 6 0
BBX 5 7 0 1
BITMAP
20
20
50
50
50
88
88
ENDCHAR
STARTCHAR Mu
ENCODING 924
SWIDTH 1000 0
DWIDTH 6 0
BBX 5 7 0 1
BITMAP
50
A8
A8
A8
88
88
88
ENDCHAR
STARTCHAR Nu
ENCODING 925
SWIDTH 1000 0
DWIDTH 6 0
BBX 5 7 0 1
BITMAP
88
88
C8
A8
98
88
88
ENDCHAR
STARTCHAR Xi
ENCODING 926
SWIDTH 1000 0
DWIDTH 6 0
BBX 5 7 0 1
BITMAP
F8
00
00
70
00
00
F8
ENDCHAR
STARTCHAR Omicron
ENCODING 927
SWIDTH 1000 0
DWIDTH 6 0
BBX 5 7 0 1
BITMAP
70
88
88
88
88
88
70
ENDCHAR
STARTCHAR Pi
ENCODING 928
SWIDTH 1000 0
DWIDTH 6 0
BBX 5 7 0 1
BITMAP
F8
88
88
88
88
88
88
ENDCHAR
STARTCHAR Rho
ENCODING 929
SWIDTH 1000 0
DWIDTH 6 0
BBX 5 7 0 1
BITMAP
F0
88
88
F0
80
80
80
ENDCHAR
STARTCHAR Sigma
ENCODING 931
SWIDTH 1000 0
DWIDTH 6 0
BBX 5 7 0 1
BITMAP
F8
80
40
20
40
80
F8
ENDCHAR
STARTCHAR Tau
ENCODING 932
SWIDTH 1000 0
DWIDTH 6 0
BBX 5 7 0 1
BITMAP
F8
20
20
20
20
20
20
ENDCHAR
STARTCHAR Upsilon
ENCODING 933
SWIDTH 1000 0
DWIDTH 6 0
BBX 5 7 0 1
BITMAP
88
88
50
20
20
20
20
ENDCHAR
STARTCHAR Phi
ENCODING 934
SWIDTH 1000 0
DWIDTH 6 0
BBX 5 7 0 1
BITMAP
20
70
A8
A8
A8
70
20
ENDCHAR
STARTCHAR Chi
ENCODING 935
SWIDTH 1000 0
DWIDTH 6 0
BBX 5 7 0 1
BITMAP
88
88
50
20
50
88
88
ENDCHAR
STARTCHAR Psi
ENCODING 936
SWIDTH 1000 0
DWIDTH 6 0
BBX 5 7 0 1
BITMAP
A8
A8
A8
70
20
20
20
ENDCHAR
STARTCHAR uni03A9
ENCODING 937
SWIDTH 1000 0
DWIDTH 6 0
BBX 5 7 0 1
BITMAP
70
88
88
88
88
50
D8
ENDCHAR
STARTCHAR Iotadieresis
ENCODING 938
SWIDTH 1000 0
DWIDTH 6 0
BBX 3 6 1 1
BITMAP
E0
00
E0
40
40
E0
ENDCHAR
STARTCHAR Upsilondieresis
ENCODING 939
SWIDTH 1000 0
DWIDTH 6 0
BBX 5 7 0 1
BITMAP
50
00
88
88
70
20
20
ENDCHAR
STARTCHAR alphatonos
ENCODING 940
SWIDTH 1000 0
DWIDTH 6 0
BBX 5 7 0 1
BITMAP
10
20
00
68
90
90
68
ENDCHAR
STARTCHAR epsilontonos
ENCODING 941
SWIDTH 1000 0
DWIDTH 6 0
BBX 5 7 0 1
BITMAP
10
20
78
80
60
80
78
ENDCHAR
STARTCHAR etatonos
ENCODING 942
SWIDTH 1000 0
DWIDTH 6 0
BBX 5 8 0 0
BITMAP
10
20
00
F0
88
88
88
08
ENDCHAR
STARTCHAR iotatonos
ENCODING 943
SWIDTH 375 0
DWIDTH 6 0
BBX 3 7 1 1
BITMAP
20
40
00
C0
40
40
60
ENDCHAR
STARTCHAR alpha
ENCODING 945
SWIDTH 1000 0
DWIDTH 6 0
BBX 5 5 0 1
BITMAP
68
90
90
90
68
ENDCHAR
STARTCHAR beta
ENCODING 946
SWIDTH 1000 0
DWIDTH 6 0
BBX 5 8 0 0
BITMAP
E0
90
90
B0
88
88
F0
80
ENDCHAR
STARTCHAR gamma
ENCODING 947
SWIDTH 1000 0
DWIDTH 6 0
BBX 5 6 0 0
BITMAP
88
48
50
50
20
20
ENDCHAR
STARTCHAR delta
ENCODING 948
SWIDTH 1000 0
DWIDTH 6 0
BBX 5 7 0 1
BITMAP
F8
40
20
70
88
88
70
ENDCHAR
STARTCHAR epsilon
ENCODING 949
SWIDTH 1000 0
DWIDTH 6 0
BBX 5 5 0 1
BITMAP
F8
80
60
80
F8
ENDCHAR
STARTCHAR zeta
ENCODING 950
SWIDTH 1000 0
DWIDTH 6 0
BBX 5 8 0 0
BITMAP
F8
08
70
80
80
80
78
08
ENDCHAR
STARTCHAR eta
ENCODING 951
SWIDTH 1000 0
DWIDTH 6 0
BBX 5 6 0 0
BITMAP
F0
88
88
88
88
08
ENDCHAR
STARTCHAR theta
ENCODING 952
SWIDTH 1000 0
DWIDTH 6 0
BBX 3 7 1 1
BITMAP
40
A0
A0
E0
A0
A0
40
ENDCHAR
STARTCHAR iota
ENCODING 953
SWIDTH 250 0
DWIDTH 6 0
BBX 3 4 1 1
BITMAP
C0
40
40
60
ENDCHAR
STARTCHAR kappa
ENCODING 954
SWIDTH 1000 0
DWIDTH 6 0
BBX 5 5 0 1
BITMAP
88
90
E0
90
88
ENDCHAR
STARTCHAR lambda
ENCODING 955
SWIDTH 1000 0
DWIDTH 6 0
BBX 5 7 0 1
BITMAP
40
20
20
50
50
88
88
ENDCHAR
STARTCHAR uni03BC
ENCODING 956
SWIDTH 1000 0
DWIDTH 6 0
BBX 3 6 0 0
BITMAP
A0
A0
A0
A0
C0
80
ENDCHAR
STARTCHAR nu
ENCODING 957
SWIDTH 1000 0
DWIDTH 6 0
BBX 5 5 0 1
BITMAP
88
88
50
50
20
ENDCHAR
STARTCHAR xi
ENCODING 958
SWIDTH 1000 0
DWIDTH 6 0
BBX 5 8 0 0
BITMAP
80
78
80
70
80
80
78
10
ENDCHAR
STARTCHAR omicron
ENCODING 959
SWIDTH 1000 0
DWIDTH 6 0
BBX 5 5 0 1
BITMAP
70
88
88
88
70
ENDCHAR
STARTCHAR pi
ENCODING 960
SWIDTH 1000 0
DWIDTH 6 0
BBX 5 5 0 1
BITMAP
F8
50
50
50
48
ENDCHAR
STARTCHAR rho
ENCODING 961
SWIDTH 1000 0
DWIDTH 6 0
BBX 5 6 0 0
BITMAP
F0
88
88
F0
80
80
ENDCHAR
STARTCHAR sigma1
ENCODING 962
SWIDTH 1000 0
DWIDTH 6 0
BBX 5 6 0 0
BITMAP
70
88
80
80
78
08
ENDCHAR
STARTCHAR sigma
ENCODING 963
SWIDTH 1000 0
DWIDTH 6 0
BBX 5 5 0 1
BITMAP
78
90
90
90
60
ENDCHAR
STARTCHAR tau
ENCODING 964
SWIDTH 1000 0
DWIDTH 6 0
BBX 5 6 0 0
BITMAP
F8
20
20
20
20
10
ENDCHAR
STARTCHAR upsilon
ENCODING 965
SWIDTH 1000 0
DWIDTH 6 0
BBX 5 5 0 1
BITMAP
88
88
88
88
70
ENDCHAR
STARTCHAR phi
ENCODING 966
SWIDTH 1000 0
DWIDTH 6 0
BBX 5 6 0 0
BITMAP
B0
A8
A8
70
20
20
ENDCHAR
STARTCHAR chi
ENCODING 967
SWIDTH 1000 0
DWIDTH 6 0
BBX 5 5 0 0
BITMAP
88
50
20
50
88
ENDCHAR
STARTCHAR psi
ENCODING 968
SWIDTH 1000 0
DWIDTH 6 0
BBX 5 6 0 0
BITMAP
A8
A8
A8
70
20
20
ENDCHAR
STARTCHAR omega
ENCODING 969
SWIDTH 1000 0
DWIDTH 6 0
BBX 5 5 0 1
BITMAP
88
A8
A8
A8
50
ENDCHAR
STARTCHAR iotadieresis
ENCODING 970
SWIDTH 1000 0
DWIDTH 6 0
BBX 3 7 0 1
BITMAP
A0
00
C0
40
40
40
60
ENDCHAR
STARTCHAR upsilondieresis
ENCODING 971
SWIDTH 1000 0
DWIDTH 6 0
BBX 5 6 0 1
BITMAP
50
00
88
88
88
F8
ENDCHAR
STARTCHAR omicrontonos
ENCODING 972
SWIDTH 1000 0
DWIDTH 6 0
BBX 5 7 0 1
BITMAP
10
20
00
F8
88
88
F8
ENDCHAR
STARTCHAR upsilontonos
ENCODING 973
SWIDTH 1000 0
DWIDTH 6 0
BBX 5 7 0 1
BITMAP
10
20
00
88
88
88
F8
ENDCHAR
STARTCHAR omegatonos
ENCODING 974
SWIDTH 1000 0
DWIDTH 6 0
BBX 5 7 0 1
BITMAP
10
20
88
A8
A8
A8
50
ENDCHAR
STARTCHAR uni0401
ENCODING 1025
SWIDTH 1000 0
DWIDTH 6 0
BBX 5 7 0 1
BITMAP
50
00
F8
80
F0
80
F8
ENDCHAR
STARTCHAR uni0404
ENCODING 1028
SWIDTH 1000 0
DWIDTH 6 0
BBX 5 7 0 1
BITMAP
38
40
80
F0
80
40
38
ENDCHAR
STARTCHAR uni0406
ENCODING 1030
SWIDTH 250 0
DWIDTH 6 0
BBX 5 7 0 1
BITMAP
F8
20
20
20
20
20
F8
ENDCHAR
STARTCHAR uni0407
ENCODING 1031
SWIDTH 1000 0
DWIDTH 6 0
BBX 5 7 0 1
BITMAP
50
00
F8
20
20
20
F8
ENDCHAR
STARTCHAR uni040E
ENCODING 1038
SWIDTH 1000 0
DWIDTH 6 0
BBX 5 7 0 1
BITMAP
70
00
88
88
78
08
30
ENDCHAR
STARTCHAR uni0410
ENCODING 1040
SWIDTH 1000 0
DWIDTH 6 0
BBX 5 7 0 1
BITMAP
70
88
88
F8
88
88
88
ENDCHAR
STARTCHAR uni0411
ENCODING 1041
SWIDTH 1000 0
DWIDTH 6 0
BBX 5 7 0 1
BITMAP
F0
80
80
F0
88
88
F0
ENDCHAR
STARTCHAR uni0412
ENCODING 1042
SWIDTH 1000 0
DWIDTH 6 0
BBX 5 7 0 1
BITMAP
F0
88
88
F0
88
88
F0
ENDCHAR
STARTCHAR uni0413
ENCODING 1043
SWIDTH 1000 0
DWIDTH 6 0
BBX 5 7 0 1
BITMAP
F8
80
80
80
80
80
80
ENDCHAR
STARTCHAR uni0414
ENCODING 1044
SWIDTH 750 0
DWIDTH 6 0
BBX 5 8 0 0
BITMAP
30
50
50
50
50
50
F8
88
ENDCHAR
STARTCHAR uni0415
ENCODING 1045
SWIDTH 1000 0
DWIDTH 6 0
BBX 5 7 0 1
BITMAP
F8
80
80
F0
80
80
F8
ENDCHAR
STARTCHAR uni0416
ENCODING 1046
SWIDTH 1000 0
DWIDTH 6 0
BBX 5 7 0 1
BITMAP
A8
A8
A8
70
A8
A8
A8
ENDCHAR
STARTCHAR uni0417
ENCODING 1047
SWIDTH 1000 0
DWIDTH 6 0
BBX 5 7 0 1
BITMAP
F8
88
08
30
08
88
F8
ENDCHAR
STARTCHAR uni0418
ENCODING 1048
SWIDTH 1000 0
DWIDTH 6 0
BBX 5 7 0 1
BITMAP
88
88
98
A8
C8
88
88
ENDCHAR
STARTCHAR uni0419
ENCODING 1049
SWIDTH 750 0
DWIDTH 6 0
BBX 5 7 0 1
BITMAP
A8
88
98
A8
C8
88
88
ENDCHAR
STARTCHAR uni041A
ENCODING 1050
SWIDTH 1000 0
DWIDTH 6 0
BBX 5 7 0 1
BITMAP
88
88
90
E0
90
88
88
ENDCHAR
STARTCHAR uni041B
ENCODING 1051
SWIDTH 1000 0
DWIDTH 6 0
BBX 5 7 0 1
BITMAP
38
48
48
48
48
88
88
ENDCHAR
STARTCHAR uni041C
ENCODING 1052
SWIDTH 1000 0
DWIDTH 6 0
BBX 5 7 0 1
BITMAP
88
D8
A8
A8
88
88
88
ENDCHAR
STARTCHAR uni041D
ENCODING 1053
SWIDTH 1000 0
DWIDTH 6 0
BBX 5 7 0 1
BITMAP
88
88
88
F8
88
88
88
ENDCHAR
STARTCHAR uni041E
ENCODING 1054
SWIDTH 1000 0
DWIDTH 6 0
BBX 5 7 0 1
BITMAP
70
88
88
88
88
88
70
ENDCHAR
STARTCHAR uni041F
ENCODING 1055
SWIDTH 1000 0
DWIDTH 6 0
BBX 5 7 0 1
BITMAP
F8
88
88
88
88
88
88
ENDCHAR
STARTCHAR uni0420
ENCODING 1056
SWIDTH 1000 0
DWIDTH 6 0
BBX 5 7 0 1
BITMAP
F0
88
88
F0
80
80
80
ENDCHAR
STARTCHAR uni0421
ENCODING 1057
SWIDTH 1000 0
DWIDTH 6 0
BBX 5 7 0 1
BITMAP
70
88
80
80
80
88
70
ENDCHAR
STARTCHAR uni0422
ENCODING 1058
SWIDTH 1000 0
DWIDTH 6 0
BBX 5 7 0 1
BITMAP
F8
20
20
20
20
20
20
ENDCHAR
STARTCHAR uni0423
ENCODING 1059
SWIDTH 625 0
DWIDTH 6 0
BBX 5 7 0 1
BITMAP
88
88
88
78
08
08
70
ENDCHAR
STARTCHAR uni0424
ENCODING 1060
SWIDTH 1000 0
DWIDTH 6 0
BBX 5 7 0 1
BITMAP
20
70
A8
A8
A8
70
20
ENDCHAR
STARTCHAR uni0425
ENCODING 1061
SWIDTH 1000 0
DWIDTH 6 0
BBX 5 7 0 1
BITMAP
88
88
50
20
50
88
88
ENDCHAR
STARTCHAR uni0426
ENCODING 1062
SWIDTH 1000 0
DWIDTH 6 0
BBX 5 8 0 0
BITMAP
90
90
90
90
90
90
F8
08
ENDCHAR
STARTCHAR uni0427
ENCODING 1063
SWIDTH 1000 0
DWIDTH 6 0
BBX 5 7 0 1
BITMAP
88
88
88
78
08
08
08
ENDCHAR
STARTCHAR uni0428
ENCODING 1064
SWIDTH 1000 0
DWIDTH 6 0
BBX 5 7 0 1
BITMAP
A8
A8
A8
A8
A8
A8
F8
ENDCHAR
STARTCHAR uni0429
ENCODING 1065
SWIDTH 1000 0
DWIDTH 6 0
BBX 6 8 0 0
BITMAP
A8
A8
A8
A8
A8
A8
FC
04
ENDCHAR
STARTCHAR uni042A
ENCODING 1066
SWIDTH 1000 0
DWIDTH 6 0
BBX 5 7 0 1
BITMAP
C0
40
40
70
48
48
70
ENDCHAR
STARTCHAR uni042B
ENCODING 1067
SWIDTH 1000 0
DWIDTH 6 0
BBX 5 7 0 1
BITMAP
88
88
88
C8
A8
A8
C8
ENDCHAR
STARTCHAR uni042C
ENCODING 1068
SWIDTH 1000 0
DWIDTH 6 0
BBX 5 7 0 1
BITMAP
80
80
80
F0
88
88
F0
ENDCHAR
STARTCHAR uni042D
ENCODING 1069
SWIDTH 625 0
DWIDTH 6 0
BBX 5 7 0 1
BITMAP
E0
10
08
78
08
10
E0
ENDCHAR
STARTCHAR uni042E
ENCODING 1070
SWIDTH 1000 0
DWIDTH 6 0
BBX 5 7 0 1
BITMAP
90
A8
A8
E8
A8
A8
90
ENDCHAR
STARTCHAR uni042F
ENCODING 1071
SWIDTH 1000 0
DWIDTH 6 0
BBX 5 7 0 1
BITMAP
78
88
88
78
48
88
88
ENDCHAR
STARTCHAR uni0430
ENCODING 1072
SWIDTH 1000 0
DWIDTH 6 0
BBX 5 5 0 1
BITMAP
70
08
78
88
78
ENDCHAR
STARTCHAR uni0431
ENCODING 1073
SWIDTH 625 0
DWIDTH 6 0
BBX 5 7 0 1
BITMAP
70
80
F0
88
88
88
70
ENDCHAR
STARTCHAR uni0432
ENCODING 1074
SWIDTH 1000 0
DWIDTH 6 0
BBX 5 5 0 1
BITMAP
F0
88
F0
88
F0
ENDCHAR
STARTCHAR uni0433
ENCODING 1075
SWIDTH 1000 0
DWIDTH 6 0
BBX 5 5 0 1
BITMAP
F8
80
80
80
80
ENDCHAR
STARTCHAR uni0434
ENCODING 1076
SWIDTH 750 0
DWIDTH 6 0
BBX 5 6 0 0
BITMAP
30
50
50
50
F8
88
ENDCHAR
STARTCHAR uni0435
ENCODING 1077
SWIDTH 1000 0
DWIDTH 6 0
BBX 5 5 0 1
BITMAP
70
88
F8
80
70
ENDCHAR
STARTCHAR uni0436
ENCODING 1078
SWIDTH 1000 0
DWIDTH 6 0
BBX 5 5 0 1
BITMAP
A8
A8
70
A8
A8
ENDCHAR
STARTCHAR uni0437
ENCODING 1079
SWIDTH 1000 0
DWIDTH 6 0
BBX 5 5 0 1
BITMAP
F0
08
70
08
F0
ENDCHAR
STARTCHAR uni0438
ENCODING 1080
SWIDTH 1000 0
DWIDTH 6 0
BBX 5 5 0 1
BITMAP
88
98
A8
C8
88
ENDCHAR
STARTCHAR uni0439
ENCODING 1081
SWIDTH 1000 0
DWIDTH 6 0
BBX 5 7 0 1
BITMAP
70
00
88
98
A8
C8
88
ENDCHAR
STARTCHAR uni043A
ENCODING 1082
SWIDTH 1000 0
DWIDTH 6 0
BBX 5 5 0 1
BITMAP
88
90
E0
90
88
ENDCHAR
STARTCHAR uni043B
ENCODING 1083
SWIDTH 1000 0
DWIDTH 6 0
BBX 5 5 0 1
BITMAP
38
48
48
48
88
ENDCHAR
STARTCHAR uni043C
ENCODING 1084
SWIDTH 1000 0
DWIDTH 6 0
BBX 5 5 0 1
BITMAP
50
A8
A8
88
88
ENDCHAR
STARTCHAR uni043D
ENCODING 1085
SWIDTH 1000 0
DWIDTH 6 0
BBX 5 5 0 1
BITMAP
88
88
F8
88
88
ENDCHAR
STARTCHAR uni043E
ENCODING 1086
SWIDTH 1000 0
DWIDTH 6 0
BBX 5 5 0 1
BITMAP
70
88
88
88
70
ENDCHAR
STARTCHAR uni043F
ENCODING 1087
SWIDTH 1000 0
DWIDTH 6 0
BBX 5 5 0 1
BITMAP
F8
88
88
88
88
ENDCHAR
STARTCHAR uni0440
ENCODING 1088
SWIDTH 1000 0
DWIDTH 6 0
BBX 5 6 0 0
BITMAP
F0
88
88
F0
80
80
ENDCHAR
STARTCHAR uni0441
ENCODING 1089
SWIDTH 1000 0
DWIDTH 6 0
BBX 5 5 0 1
BITMAP
78
80
80
80
78
ENDCHAR
STARTCHAR uni0442
ENCODING 1090
SWIDTH 1000 0
DWIDTH 6 0
BBX 5 5 0 1
BITMAP
F8
20
20
20
20
ENDCHAR
STARTCHAR uni0443
ENCODING 1091
SWIDTH 1000 0
DWIDTH 6 0
BBX 5 6 0 0
BITMAP
88
88
88
78
08
70
ENDCHAR
STARTCHAR uni0444
ENCODING 1092
SWIDTH 1000 0
DWIDTH 6 0
BBX 5 8 0 0
BITMAP
20
20
70
A8
A8
70
20
20
ENDCHAR
STARTCHAR uni0445
ENCODING 1093
SWIDTH 1000 0
DWIDTH 6 0
BBX 5 5 0 1
BITMAP
88
50
20
50
88
ENDCHAR
STARTCHAR uni0446
ENCODING 1094
SWIDTH 1000 0
DWIDTH 6 0
BBX 5 6 0 0
BITMAP
90
90
90
90
78
08
ENDCHAR
STARTCHAR uni0447
ENCODING 1095
SWIDTH 1000 0
DWIDTH 6 0
BBX 5 5 0 1
BITMAP
88
88
78
08
08
ENDCHAR
STARTCHAR uni0448
ENCODING 1096
SWIDTH 1000 0
DWIDTH 6 0
BBX 5 5 0 1
BITMAP
A8
A8
A8
A8
F8
ENDCHAR
STARTCHAR uni0449
ENCODING 1097
SWIDTH 1000 0
DWIDTH 6 0
BBX 6 6 0 0
BITMAP
A8
A8
A8
A8
FC
04
ENDCHAR
STARTCHAR uni044A
ENCODING 1098
SWIDTH 1000 0
DWIDTH 6 0
BBX 5 5 0 1
BITMAP
C0
40
70
48
70
ENDCHAR
STARTCHAR uni044B
ENCODING 1099
SWIDTH 1000 0
DWIDTH 6 0
BBX 5 5 0 1
BITMAP
88
88
E8
A8
E8
ENDCHAR
STARTCHAR uni044C
ENCODING 1100
SWIDTH 1000 0
DWIDTH 6 0
BBX 5 5 0 1
BITMAP
80
80
F0
88
F0
ENDCHAR
STARTCHAR uni044D
ENCODING 1101
SWIDTH 1000 0
DWIDTH 6 0
BBX 5 5 0 1
BITMAP
F0
08
78
08
F0
ENDCHAR
STARTCHAR uni044E
ENCODING 1102
SWIDTH 1000 0
DWIDTH 6 0
BBX 5 5 0 1
BITMAP
90
A8
E8
A8
90
ENDCHAR
STARTCHAR uni044F
ENCODING 1103
SWIDTH 1000 0
DWIDTH 6 0
BBX 5 5 0 1
BITMAP
78
88
78
48
88
ENDCHAR
STARTCHAR uni0451
ENCODING 1105
SWIDTH 1000 0
DWIDTH 6 0
BBX 5 7 0 1
BITMAP
50
00
70
88
F8
80
70
ENDCHAR
STARTCHAR uni0454
ENCODING 1108
SWIDTH 1000 0
DWIDTH 6 0
BBX 5 5 0 1
BITMAP
78
80
F0
80
78
ENDCHAR
STARTCHAR uni0456
ENCODING 1110
SWIDTH 250 0
DWIDTH 6 0
BBX 3 6 1 1
BITMAP
40
00
C0
40
40
E0
ENDCHAR
STARTCHAR uni0457
ENCODING 1111
SWIDTH 1000 0
DWIDTH 6 0
BBX 3 6 1 1
BITMAP
A0
00
C0
40
40
E0
ENDCHAR
STARTCHAR uni045E
ENCODING 1118
SWIDTH 1000 0
DWIDTH 6 0
BBX 5 8 0 0
BITMAP
70
00
88
88
88
78
08
70
ENDCHAR
STARTCHAR uni0490
ENCODING 1168
SWIDTH 1000 0
DWIDTH 6 0
BBX 5 7 0 1
BITMAP
08
F8
80
80
80
80
80
ENDCHAR
STARTCHAR uni0491
ENCODING 1169
SWIDTH 1000 0
DWIDTH 6 0
BBX 5 6 0 1
BITMAP
08
F8
80
80
80
80
ENDCHAR
STARTCHAR uni1E9E
ENCODING 7838
SWIDTH 1000 0
DWIDTH 6 0
BBX 5 7 0 1
BITMAP
F0
88
90
A0
90
88
B0
ENDCHAR
STARTCHAR bullet
ENCODING 8226
SWIDTH 1000 0
DWIDTH 6 0
BBX 3 3 1 3
BITMAP
E0
E0
E0
ENDCHAR
ENDFONT
